<svg width="18" height="18" viewBox="0 0 18 18" fill="none" xmlns="http://www.w3.org/2000/svg">
<circle cx="9" cy="9" r="9" fill="#AC8BD3"/>
<path d="M12.6666 9.83325H9.83325V12.6666C9.83325 13.0347 9.53467 13.3333 9.16663 13.3333C8.79858 13.3333 8.5 13.0347 8.5 12.6666V9.83325H5.66663C5.29858 9.83325 5 9.53467 5 9.16663C5 8.79858 5.29858 8.5 5.66663 8.5H8.5V5.66663C8.5 5.29858 8.79858 5 9.16663 5C9.53467 5 9.83325 5.29858 9.83325 5.66663V8.5H12.6666C13.0347 8.5 13.3333 8.79858 13.3333 9.16663C13.3333 9.53467 13.0347 9.83325 12.6666 9.83325V9.83325Z" fill="white"/>
</svg>
