<svg width="42" height="42" viewBox="0 0 42 42" fill="none" xmlns="http://www.w3.org/2000/svg">
<circle cx="21" cy="21" r="21" fill="#DADADA"/>
<path d="M17.1318 22.0338L16.2622 21.0962L12.3981 24.6801C11.8657 25.1739 11.8676 25.9932 12.402 26.4883L16.2574 30.0598L17.1264 29.1217L13.3058 25.5824L17.1318 22.0338Z" fill="white"/>
<path d="M22.2334 24.9375H13.282V26.2163H22.2334V24.9375Z" fill="white"/>
<path d="M23.9238 20.0261L24.7934 20.9636L28.6575 17.3797C29.1899 16.8859 29.188 16.0666 28.6536 15.5715L24.7982 12.0001L23.9292 12.9381L27.7498 16.4774L23.9238 20.0261Z" fill="white"/>
<path d="M18.8222 17.1223L27.7736 17.1223L27.7736 15.8435L18.8222 15.8435L18.8222 17.1223Z" fill="white"/>
</svg>
