<svg width="25" height="25" viewBox="0 0 25 25" fill="none" xmlns="http://www.w3.org/2000/svg">
<path d="M12.5 4.54541C8.11419 4.54541 4.54547 8.11413 4.54547 12.5C4.54547 16.8858 8.11419 20.4545 12.5 20.4545C16.8858 20.4545 20.4546 16.8858 20.4546 12.5C20.4546 8.11413 16.8858 4.54541 12.5 4.54541ZM15.9801 13.1632H13.1632V15.9801C13.1632 16.3459 12.8658 16.6433 12.5 16.6433C12.1342 16.6433 11.8368 16.3459 11.8368 15.9801V13.1632H9.0199C8.65407 13.1632 8.3567 12.8658 8.3567 12.5C8.3567 12.1341 8.65407 11.8368 9.0199 11.8368H11.8368V9.01984C11.8368 8.65401 12.1342 8.35664 12.5 8.35664C12.8658 8.35664 13.1632 8.65401 13.1632 9.01984V11.8368H15.9801C16.346 11.8368 16.6433 12.1341 16.6433 12.5C16.6433 12.8658 16.346 13.1632 15.9801 13.1632Z" fill="#AC8BD3"/>
<circle cx="12.5" cy="12.5" r="12.25" stroke="#AC8BD3" stroke-width="0.5" stroke-dasharray="2 2"/>
</svg>
