<svg width="20" height="21" viewBox="0 0 20 21" fill="none" xmlns="http://www.w3.org/2000/svg">
<path d="M19.7993 9.50322L18.3695 8.07341L10.5055 0.209332C10.2263 -0.0697774 9.77373 -0.0697774 9.49458 0.209332L1.63051 8.07336L0.200696 9.50322C-0.0735963 9.78723 -0.065763 10.2398 0.218247 10.5141C0.495304 10.7817 0.934515 10.7817 1.21157 10.5141L1.42106 10.3046V19.3025C1.42106 19.6974 1.74114 20.0174 2.13599 20.0174H6.42547V12.1534C6.42547 11.7585 6.74555 11.4385 7.1404 11.4385H12.8597C13.2545 11.4385 13.5746 11.7585 13.5746 12.1534V20.0174H17.8641C18.2589 20.0174 18.579 19.6974 18.579 19.3025V10.3046L18.7885 10.5141C19.0725 10.7884 19.5251 10.7805 19.7993 10.4965C20.0669 10.2195 20.0669 9.78023 19.7993 9.50322Z" fill="#AC8BD3"/>
<rect x="7.06488" y="14.1299" width="5.88748" height="1.1775" fill="#AC8BD3"/>
<rect x="7.06482" y="16.4849" width="5.88748" height="1.1775" fill="#AC8BD3"/>
<rect x="7.06482" y="18.8398" width="5.88748" height="1.1775" fill="#AC8BD3"/>
</svg>
