<svg width="20" height="20" viewBox="0 0 20 20" fill="none" xmlns="http://www.w3.org/2000/svg">
<g clip-path="url(#clip0_14901_229)">
<path d="M16.001 2.85156H1.16032C0.51282 2.85156 0 3.39546 0 4.03779V13.1494C0 13.1546 0 13.1598 0 13.165C0.00518001 13.7969 0.52836 14.3046 1.16032 14.2994H1.7612V6.85571C1.7612 5.63841 2.75576 4.66457 3.97306 4.66457H17.151V4.03779C17.151 3.39546 16.6485 2.85156 16.001 2.85156Z" fill="#C4C4C4"/>
<path d="M17.6172 13.5741C17.265 13.2788 16.7418 13.3254 16.4465 13.6777C16.4206 13.7088 16.3947 13.7347 16.3688 13.7554C16.1461 13.9367 15.8198 13.9004 15.6385 13.6777C15.4831 13.486 15.2448 13.3721 14.9961 13.3721C14.5299 13.3721 14.157 13.745 14.1622 14.2112C14.1622 14.6723 14.5403 15.0452 15.0013 15.0452C15.25 15.0504 15.4882 14.9364 15.6436 14.7448C15.7421 14.6256 15.8871 14.5583 16.0425 14.5583C16.1927 14.5531 16.3429 14.6205 16.4414 14.7396C16.4776 14.781 16.5087 14.8173 16.5501 14.8484C16.9024 15.1436 17.4256 15.097 17.7208 14.7448C18.0161 14.3925 17.9695 13.8694 17.6172 13.5741Z" fill="#C4C4C4"/>
<path d="M18.819 5.70048H3.97828H3.9731C3.3256 5.6953 2.80242 6.2133 2.79724 6.85562V7.61708H19.9949H20V6.85562C20 6.20812 19.4665 5.70048 18.819 5.70048Z" fill="#C4C4C4"/>
<path d="M19.9949 8.65308H2.79724V9.99988H19.9949V8.65308Z" fill="#C4C4C4"/>
<path d="M2.79724 11.0359V15.9621C2.79724 16.6148 3.32042 17.1431 3.9731 17.1483H18.8138C19.4665 17.1431 19.9897 16.6148 19.9949 15.9621V11.0359H2.79724V11.0359ZM18.6429 15.2524C18.0627 16.1071 16.8972 16.335 16.0425 15.7549C15.7317 15.9673 15.3691 16.076 14.9962 16.076C13.9602 16.076 13.1262 15.2317 13.1262 14.2009C13.1262 13.17 13.9602 12.3309 14.9962 12.3309C15.3691 12.3309 15.7317 12.4397 16.0425 12.652C16.6797 12.2221 17.5085 12.2221 18.1404 12.652C18.9951 13.2322 19.223 14.3977 18.6429 15.2524Z" fill="#C4C4C4"/>
</g>
<defs>
<clipPath id="clip0_14901_229">
<rect width="20" height="20" fill="white"/>
</clipPath>
</defs>
</svg>
