<svg width="25" height="25" viewBox="0 0 25 25" fill="none" xmlns="http://www.w3.org/2000/svg">
<circle cx="12.5" cy="12.5" r="12.5" transform="rotate(-180 12.5 12.5)" fill="white"/>
<path d="M12.5245 7.46352C12.6741 7.00287 13.3259 7.00287 13.4755 7.46353L14.4593 10.4914C14.5263 10.6974 14.7183 10.8369 14.9349 10.8369H18.1186C18.6029 10.8369 18.8043 11.4567 18.4124 11.7414L15.8368 13.6127C15.6615 13.74 15.5882 13.9657 15.6552 14.1717L16.639 17.1996C16.7886 17.6602 16.2614 18.0433 15.8695 17.7586L13.2939 15.8873C13.1186 15.76 12.8814 15.76 12.7061 15.8873L10.1305 17.7586C9.73859 18.0433 9.21136 17.6602 9.36103 17.1996L10.3448 14.1717C10.4118 13.9657 10.3385 13.74 10.1632 13.6127L7.58755 11.7414C7.1957 11.4567 7.39708 10.8369 7.88145 10.8369H11.0651C11.2817 10.8369 11.4737 10.6974 11.5407 10.4914L12.5245 7.46352Z" fill="#AC8BD3"/>
</svg>
